 <svg
    width="304"
    height="353"
    viewBox="0 0 304 353"
    fill="none"
    xmlns="http://www.w3.org/2000/svg">
    <rect
      x="11.093"
      y="133.884"
      width="63.4186"
      height="218.442"
      rx="23"
      fill="#0ABF55" />
    <path
      fill-rule="evenodd"
      clip-rule="evenodd"
      d="M109.221 218.442C169.542 218.442 218.442 169.542 218.442 109.221C218.442 48.8999 169.542 0 109.221 0C48.8999 0 0 48.8999 0 109.221C0 169.542 48.8999 218.442 109.221 218.442ZM109.428 162.07C138.73 162.07 162.484 136.831 162.484 105.698C162.484 74.5642 138.73 49.3256 109.428 49.3256C80.1261 49.3256 56.3721 74.5642 56.3721 105.698C56.3721 136.831 80.1261 162.07 109.428 162.07Z"
      fill="#0ABF55" />
    <mask id="path-3-inside-1_19_43" fill="white">
      <path
        d="M183.2 273.4C204 273.4 224.133 265.133 243.6 248.6C250.8 242.467 256.667 236.867 261.2 231.8C265.733 226.467 269.2 223.8 271.6 223.8C275.333 223.8 277.2 227.533 277.2 235C277.2 242.467 275.2 250.867 271.2 260.2C267.2 269.267 260.533 278.2 251.2 287C228.267 308.6 196.8 319.4 156.8 319.4C125.067 319.4 103.467 307.933 92 285C88 277 86 265.533 86 250.6C86 235.667 88.9333 220.2 94.8 204.2C100.667 187.933 108.4 173.933 118 162.2C127.867 150.467 139.2 141.4 152 135C164.8 128.333 178.4 125 192.8 125C207.467 125 218.667 128.6 226.4 135.8C234.4 143 238.4 152.333 238.4 163.8C238.4 175.267 235.467 184.733 229.6 192.2C224 199.4 216.667 205.533 207.6 210.6C198.533 215.4 188.4 219.8 177.2 223.8C166.267 227.533 155.467 231.8 144.8 236.6V246.6C145.067 256.2 149.067 263 156.8 267C164.533 271 173.333 273.133 183.2 273.4ZM176.4 160.6C162.533 160.6 152.933 176.733 147.6 209C153.2 205.267 158.4 201.933 163.2 199C168.267 196.067 172.667 193.267 176.4 190.6C184.4 184.733 188.533 178.067 188.8 170.6C188.8 163.933 184.667 160.6 176.4 160.6Z" />
    </mask>
    <path
      d="M183.2 273.4C204 273.4 224.133 265.133 243.6 248.6C250.8 242.467 256.667 236.867 261.2 231.8C265.733 226.467 269.2 223.8 271.6 223.8C275.333 223.8 277.2 227.533 277.2 235C277.2 242.467 275.2 250.867 271.2 260.2C267.2 269.267 260.533 278.2 251.2 287C228.267 308.6 196.8 319.4 156.8 319.4C125.067 319.4 103.467 307.933 92 285C88 277 86 265.533 86 250.6C86 235.667 88.9333 220.2 94.8 204.2C100.667 187.933 108.4 173.933 118 162.2C127.867 150.467 139.2 141.4 152 135C164.8 128.333 178.4 125 192.8 125C207.467 125 218.667 128.6 226.4 135.8C234.4 143 238.4 152.333 238.4 163.8C238.4 175.267 235.467 184.733 229.6 192.2C224 199.4 216.667 205.533 207.6 210.6C198.533 215.4 188.4 219.8 177.2 223.8C166.267 227.533 155.467 231.8 144.8 236.6V246.6C145.067 256.2 149.067 263 156.8 267C164.533 271 173.333 273.133 183.2 273.4ZM176.4 160.6C162.533 160.6 152.933 176.733 147.6 209C153.2 205.267 158.4 201.933 163.2 199C168.267 196.067 172.667 193.267 176.4 190.6C184.4 184.733 188.533 178.067 188.8 170.6C188.8 163.933 184.667 160.6 176.4 160.6Z"
      fill="white" />
    <path
      d="M183.2 273.4L183.193 273.65H183.2V273.4ZM243.6 248.6L243.762 248.791L243.762 248.79L243.6 248.6ZM261.2 231.8L261.386 231.967L261.39 231.962L261.2 231.8ZM271.2 260.2L271.429 260.301L271.43 260.298L271.2 260.2ZM251.2 287L251.371 287.182L251.372 287.182L251.2 287ZM92 285L91.7764 285.112L91.7764 285.112L92 285ZM94.8 204.2L95.0347 204.286L95.0352 204.285L94.8 204.2ZM118 162.2L117.809 162.039L117.807 162.042L118 162.2ZM152 135L152.112 135.224L152.115 135.222L152 135ZM226.4 135.8L226.23 135.983L226.233 135.986L226.4 135.8ZM229.6 192.2L229.403 192.046L229.403 192.047L229.6 192.2ZM207.6 210.6L207.717 210.821L207.722 210.818L207.6 210.6ZM177.2 223.8L177.281 224.037L177.284 224.035L177.2 223.8ZM144.8 236.6L144.697 236.372L144.55 236.438V236.6H144.8ZM144.8 246.6H144.55L144.55 246.607L144.8 246.6ZM156.8 267L156.685 267.222L156.685 267.222L156.8 267ZM147.6 209L147.353 208.959L147.259 209.528L147.739 209.208L147.6 209ZM163.2 199L163.075 198.784L163.07 198.787L163.2 199ZM176.4 190.6L176.545 190.803L176.548 190.802L176.4 190.6ZM188.8 170.6L189.05 170.609V170.6H188.8ZM183.2 273.65C204.072 273.65 224.261 265.353 243.762 248.791L243.438 248.409C224.006 264.913 203.928 273.15 183.2 273.15V273.65ZM243.762 248.79C250.968 242.652 256.843 237.044 261.386 231.967L261.014 231.633C256.49 236.689 250.632 242.281 243.438 248.41L243.762 248.79ZM261.39 231.962C263.652 229.302 265.639 227.316 267.352 225.998C269.074 224.674 270.485 224.05 271.6 224.05V223.55C270.315 223.55 268.793 224.259 267.048 225.602C265.295 226.95 263.282 228.965 261.01 231.638L261.39 231.962ZM271.6 224.05C272.49 224.05 273.257 224.272 273.911 224.708C274.567 225.145 275.125 225.808 275.576 226.712C276.484 228.526 276.95 231.279 276.95 235H277.45C277.45 231.254 276.983 228.407 276.024 226.488C275.542 225.525 274.933 224.788 274.189 224.292C273.443 223.795 272.577 223.55 271.6 223.55V224.05ZM276.95 235C276.95 242.423 274.961 250.789 270.97 260.102L271.43 260.298C275.439 250.945 277.45 242.51 277.45 235H276.95ZM270.971 260.099C266.988 269.128 260.344 278.035 251.029 286.818L251.372 287.182C260.722 278.365 267.412 269.406 271.429 260.301L270.971 260.099ZM251.029 286.818C228.153 308.363 196.754 319.15 156.8 319.15V319.65C196.846 319.65 228.38 308.837 251.371 287.182L251.029 286.818ZM156.8 319.15C125.134 319.15 103.637 307.715 92.2236 284.888L91.7764 285.112C103.296 308.152 124.999 319.65 156.8 319.65V319.15ZM92.2236 284.888C88.2489 276.939 86.25 265.517 86.25 250.6H85.75C85.75 265.549 87.7511 277.061 91.7764 285.112L92.2236 284.888ZM86.25 250.6C86.25 235.7 89.1768 220.262 95.0347 204.286L94.5653 204.114C88.6899 220.138 85.75 235.633 85.75 250.6H86.25ZM95.0352 204.285C100.894 188.041 108.614 174.067 118.193 162.358L117.807 162.042C108.186 173.8 100.44 187.826 94.5648 204.115L95.0352 204.285ZM118.191 162.361C128.038 150.652 139.344 141.607 152.112 135.224L151.888 134.776C139.056 141.193 127.696 150.282 117.809 162.039L118.191 162.361ZM152.115 135.222C164.88 128.574 178.44 125.25 192.8 125.25V124.75C178.36 124.75 164.72 128.093 151.885 134.778L152.115 135.222ZM192.8 125.25C207.428 125.25 218.558 128.84 226.23 135.983L226.57 135.617C218.775 128.36 207.505 124.75 192.8 124.75V125.25ZM226.233 135.986C234.176 143.135 238.15 152.399 238.15 163.8H238.65C238.65 152.268 234.624 142.865 226.567 135.614L226.233 135.986ZM238.15 163.8C238.15 175.223 235.229 184.632 229.403 192.046L229.797 192.354C235.705 184.835 238.65 175.311 238.65 163.8H238.15ZM229.403 192.047C223.826 199.217 216.52 205.329 207.478 210.382L207.722 210.818C216.814 205.737 224.174 199.583 229.797 192.353L229.403 192.047ZM207.483 210.379C198.428 215.173 188.306 219.568 177.116 223.565L177.284 224.035C188.494 220.032 198.638 215.627 207.717 210.821L207.483 210.379ZM177.119 223.563C166.178 227.299 155.371 231.569 144.697 236.372L144.903 236.828C155.562 232.031 166.355 227.767 177.281 224.037L177.119 223.563ZM144.55 236.6V246.6H145.05V236.6H144.55ZM144.55 246.607C144.819 256.286 148.861 263.175 156.685 267.222L156.915 266.778C149.272 262.825 145.314 256.114 145.05 246.593L144.55 246.607ZM156.685 267.222C164.456 271.242 173.294 273.382 183.193 273.65L183.207 273.15C173.373 272.884 164.61 270.758 156.915 266.778L156.685 267.222ZM176.4 160.35C169.348 160.35 163.412 164.46 158.585 172.572C153.762 180.678 150.022 192.815 147.353 208.959L147.847 209.041C150.511 192.919 154.238 180.855 159.015 172.828C163.788 164.807 169.585 160.85 176.4 160.85V160.35ZM147.739 209.208C153.336 205.476 158.534 202.145 163.33 199.213L163.07 198.787C158.266 201.722 153.064 205.057 147.461 208.792L147.739 209.208ZM163.325 199.216C168.397 196.28 172.804 193.476 176.545 190.803L176.255 190.397C172.529 193.058 168.136 195.853 163.075 198.784L163.325 199.216ZM176.548 190.802C184.588 184.906 188.78 178.175 189.05 170.609L188.55 170.591C188.287 177.958 184.212 184.561 176.252 190.398L176.548 190.802ZM189.05 170.6C189.05 167.212 187.997 164.631 185.857 162.905C183.727 161.188 180.56 160.35 176.4 160.35V160.85C180.506 160.85 183.54 161.679 185.543 163.295C187.536 164.902 188.55 167.321 188.55 170.6H189.05Z"
      fill="#0ABF55"
      mask="url(#path-3-inside-1_19_43)" />
  </svg>
